<svg xmlns="http://www.w3.org/2000/svg" style="display: none;">
    <!-- Іконка користувача -->
    <symbol id="icon-user" viewBox="0 0 32 32">
        <path stroke="currentColor" stroke-linecap="round" stroke-width="2" d="M8.5 25v-1.5a7.5 7.5 0 0 1 15 0V25"/><path stroke="currentColor" stroke-linecap="round" stroke-linejoin="round" stroke-width="2" d="M16 16a4.5 4.5 0 1 0 0-9 4.5 4.5 0 0 0 0 9Z"/><path stroke="#8F8F8F" stroke-width="2" d="M16 31c8.284 0 15-6.716 15-15 0-8.284-6.716-15-15-15C7.716 1 1 7.716 1 16c0 8.284 6.716 15 15 15Z"/>
    </symbol>

    <!-- Іконка будиночка -->
    <symbol id="icon-house" viewBox="0 0 32 34">
        <path d="M1 16L16 1L31 16H1Z" stroke="currentColor" stroke-width="2" stroke-linecap="round" stroke-linejoin="round"/>
        <path d="M12.31 32.9V25.09H19.69V32.9H26.61V16H5.39001V32.9H12.31Z" stroke="currentColor" stroke-width="2" stroke-linecap="round" stroke-linejoin="round"/>
    </symbol>

    <!-- Логотип -->
    <symbol id="icon-logo" viewBox="0 0 93 40">
        <path d="M13.1248 37.2228H10.467V39.8806H13.1248V37.2228Z" fill="#8F8F8F"/>
        <path d="M13.1248 21.5822H10.467V24.24H13.1248V21.5822Z" fill="#8F8F8F"/>
        <path d="M10.8438 7.77353H8.18604V10.4313H10.8438V7.77353Z" fill="#8F8F8F"/>
        <path d="M8.05679 11.5052H5.39899V14.163H8.05679V11.5052Z" fill="#8F8F8F"/>
        <path d="M5.44308 15.5696H2.78528V18.2274H5.44308V15.5696Z" fill="#8F8F8F"/>
        <path d="M2.6578 27.0262H0V29.684H2.6578V27.0262Z" fill="#8F8F8F"/>
        <path d="M2.6578 21.8525H0V24.5103H2.6578V21.8525Z" fill="#8F8F8F"/>
        <path d="M8.69119 35.8293H6.03339V38.4871H8.69119V35.8293Z" fill="#8F8F8F"/>
        <path d="M6.03415 33.1714H3.37634V35.8292H6.03415V33.1714Z" fill="#8F8F8F"/>
        <path d="M13.1238 26.9153H9.36115V30.6779H13.1238V26.9153Z" fill="#8F8F8F"/>
        <path d="M9.36191 24.2617H6.7041V26.9195H9.36191V24.2617Z" fill="#8F8F8F"/>
        <path d="M20.2011 10.8797C16.2965 5.66168 13.2438 0.208542 13.1285 0V4.56129C14.5306 7.36108 16.3098 9.90796 18.0403 12.3883C21.1551 16.852 24.0969 21.0672 24.0969 25.8592C24.0969 32.3462 19.3803 37.2358 13.124 37.2358V39.8759H13.1462C20.8978 39.867 26.7369 33.8415 26.7369 25.8592C26.7369 20.2374 23.7197 15.5741 20.2011 10.8752" fill="#8F8F8F"/>
        <path fill-rule="evenodd" clip-rule="evenodd" d="M53.3802 17.7699H51.7078C50.6191 17.7699 50.068 17.0826 50.068 15.7268C50.068 14.7596 50.3522 13.6057 51.7078 13.6057H53.3802V17.7699ZM51.4505 19.615H55.4347V8.15611H53.3821V11.7606H51.4351C49.3806 11.7625 48 13.3562 48 15.7287C48 18.1013 49.3537 19.615 51.4505 19.615Z" fill="#8F8F8F"/>
        <path fill-rule="evenodd" clip-rule="evenodd" d="M58.2208 10.4334C58.914 10.4334 59.4574 9.9022 59.4574 9.22244C59.4574 8.54267 58.9025 7.98096 58.2208 7.98096C57.5392 7.98096 56.9996 8.53886 56.9996 9.22244C56.9996 9.90601 57.5353 10.4334 58.2208 10.4334Z" fill="#8F8F8F"/>
        <path d="M59.2634 11.7625H57.2108V19.6151H59.2634V11.7625Z" fill="#8F8F8F"/>
        <path fill-rule="evenodd" clip-rule="evenodd" d="M64.8472 17.77C63.7585 17.7547 63.2055 17.0407 63.2055 15.6469C63.2055 14.2531 63.7566 13.6038 64.8453 13.6038H66.5158V17.7681H64.8472V17.77ZM64.5381 23.2195H64.7473C67.2838 23.2195 68.5684 21.8847 68.5684 19.2533V11.7625H64.5841C62.4874 11.7625 61.1337 13.2877 61.1337 15.6488C61.1337 18.0099 62.5142 19.6151 64.5688 19.6151H66.5119C66.462 20.8641 65.8591 21.424 64.5688 21.424C63.9524 21.424 63.4186 21.1631 63.1018 20.7061L61.5503 21.9742C62.2032 22.753 63.3188 23.2195 64.5361 23.2195H64.5381Z" fill="#8F8F8F"/>
        <path fill-rule="evenodd" clip-rule="evenodd" d="M71.2259 10.4334C71.9191 10.4334 72.4625 9.9022 72.4625 9.22244C72.4625 8.54267 71.9076 7.98096 71.2259 7.98096C70.5443 7.98096 70.0067 8.53886 70.0067 9.22244C70.0067 9.90601 70.5424 10.4334 71.2259 10.4334Z" fill="#8F8F8F"/>
        <path d="M72.2684 11.7625H70.2158V19.6151H72.2684V11.7625Z" fill="#8F8F8F"/>
        <path fill-rule="evenodd" clip-rule="evenodd" d="M78.8622 19.6151V17.7719H77.303C76.9036 17.7719 76.5695 17.6919 76.5369 16.7075V13.6076H78.4762V11.7625H76.5369V9.7594H74.4824V16.7532C74.4824 18.5659 75.4827 19.5827 77.303 19.6151H78.8622Z" fill="#8F8F8F"/>
        <path fill-rule="evenodd" clip-rule="evenodd" d="M83.1998 18.027C82.7677 18.027 82.0458 17.9071 82.0458 17.1074C82.0458 16.4333 82.3184 16.2505 84.2347 16.2505H85.0277C84.9528 17.3511 84.2616 18.027 83.2017 18.027H83.1998ZM87.0381 19.6151V14.6549C87.0381 12.5451 85.2409 11.6026 83.4571 11.6026C82.5008 11.6026 81.5235 11.8996 80.7094 12.4385L81.7597 13.9618C81.8595 13.8761 82.4048 13.4496 83.3591 13.4305C83.7316 13.4305 84.9106 13.5029 85.0085 14.4054H83.747C81.2681 14.4054 79.9567 15.3613 79.9567 17.1702C79.9567 18.802 81.1011 19.775 83.0193 19.775C83.8468 19.775 84.5074 19.4342 85.0296 19.1257V19.6132H87.0343L87.0381 19.6151Z" fill="#8F8F8F"/>
        <path fill-rule="evenodd" clip-rule="evenodd" d="M91.4409 17.7699C91.0262 17.7699 90.7074 17.6938 90.6748 16.7379V8.15611H88.6202V16.7208C88.6202 18.5544 89.6206 19.5808 91.4409 19.6131H93.0001V17.7699H91.4409Z" fill="#8F8F8F"/>
        <path fill-rule="evenodd" clip-rule="evenodd" d="M58.9736 28.0922C58.9736 30.7008 58.0942 33.7874 57.3511 33.7874C56.7079 33.7874 55.792 30.8417 55.792 28.0922V27.9703H53.7547V28.0922C53.7547 31.3958 52.785 33.7874 52.1322 33.7874C51.4448 33.7874 50.5577 31.0264 50.5577 28.0922V27.9703H48.4878V28.0922C48.4878 32.1479 50.2582 35.9847 52.1322 35.9847C53.0711 35.9847 53.9947 35.0098 54.7512 33.2333C55.5155 34.9869 56.4544 35.9847 57.3511 35.9847C59.4997 35.9847 60.9955 31.8261 60.9955 28.0922V27.9703H58.9736V28.0922Z" fill="#8F8F8F"/>
        <path fill-rule="evenodd" clip-rule="evenodd" d="M65.4137 34.2367C64.9817 34.2367 64.2597 34.1167 64.2597 33.317C64.2597 32.6429 64.5324 32.4601 66.4487 32.4601H67.2417C67.1668 33.5607 66.4756 34.2367 65.4137 34.2367ZM65.6729 27.8103C64.7167 27.8103 63.7394 28.1074 62.9252 28.6462L63.9755 30.1676C64.0754 30.0819 64.6207 29.6554 65.575 29.6364C65.9475 29.6364 67.1265 29.7087 67.2244 30.6113H65.9629C63.484 30.6113 62.1725 31.5671 62.1725 33.376C62.1725 35.0078 63.3169 35.9808 65.2352 35.9808C66.0627 35.9808 66.7232 35.64 67.2455 35.3315V35.8209H69.2501V30.8607C69.2501 28.7509 67.4529 27.8065 65.671 27.8065L65.6729 27.8103Z" fill="#8F8F8F"/>
        <path fill-rule="evenodd" clip-rule="evenodd" d="M72.8888 32.9152V29.8153H74.8281V27.9722H72.8888V25.969H70.8342V32.9628C70.8342 34.7755 71.8346 35.7923 73.6549 35.8247H75.214V33.9815H73.6549C73.2555 33.9815 72.9214 33.9015 72.8888 32.9171V32.9152Z" fill="#8F8F8F"/>
        <path fill-rule="evenodd" clip-rule="evenodd" d="M78.6856 30.6799C78.9218 30.162 79.8012 29.6555 80.3599 29.6555C80.9187 29.6555 81.6599 29.9277 81.9517 30.6799H78.6856ZM84.133 31.67C83.9237 29.326 82.4606 27.8104 80.4079 27.8104H80.3427C78.1172 27.8104 76.3757 29.6231 76.3757 31.9366C76.3757 34.2501 78.1537 35.9999 80.4233 35.9999C81.8692 35.9828 83.1 35.4401 83.8008 34.5071L82.4145 33.3456C81.8999 33.9092 81.3123 34.172 80.5673 34.172H80.4367C79.4556 34.172 78.6625 33.4865 78.507 32.523H84.1291V31.67H84.133Z" fill="#8F8F8F"/>
        <path fill-rule="evenodd" clip-rule="evenodd" d="M89.8108 27.8104C88.9563 27.8104 88.2881 28.0065 87.7351 28.4254V27.9703H85.6806V35.8229H87.7351V32.2279C87.762 31.0474 88.2267 29.6707 89.4556 29.6707C89.6898 29.6707 89.7954 29.7335 90.0412 29.8782L90.8726 28.0827C90.4924 27.8675 90.0124 27.8104 89.8108 27.8104Z" fill="#8F8F8F"/>
    </symbol>

        <!-- Loop -->
    <symbol id="icon-loop" viewBox="0 0 23 23">
        <path d="M14.7812 15.2488L23.0266 23.4941" stroke="white" stroke-width="2" stroke-linecap="round" stroke-linejoin="round"/>
        <path d="M14.6239 14.9246C17.2658 12.2827 17.2658 7.99945 14.6239 5.3576C11.9821 2.71574 7.6988 2.71574 5.05694 5.3576C2.41508 7.99945 2.41508 12.2827 5.05694 14.9246C7.6988 17.5665 11.9821 17.5665 14.6239 14.9246Z" fill="#27282C" stroke="white" stroke-width="2" stroke-linejoin="round"/>
    </symbol>
 
        <!-- checkpoint -->
    <symbol id="icon-checkpoint" viewBox="0 0 24 32">
        <path fill-rule="evenodd" clip-rule="evenodd" d="M17.7308 24.8948C20.6995 20.9161 23.25 16.976 23.25 12.217C23.2465 5.46159 18.3127 0.365159 11.7657 0.354614H11.7308C5.1838 0.365159 0.25 5.46159 0.25 12.217C0.25 16.9725 5.76916 24.8948 5.76916 24.8948L9.74477 30.6591C10.7134 32.065 12.7761 32.065 13.7483 30.6591L17.7274 24.8948H17.7308Z" fill="#A44926"/>
        <path d="M11.8551 6.68707L13.3165 6.68707L13.3165 5.26815L11.8551 5.26815L11.8551 6.68707Z" fill="white"/>
        <path d="M11.7733 15.0438L13.3165 15.0438L13.3165 13.6249L11.7733 13.6249L11.7733 15.0438Z" fill="white"/>
        <path d="M13.1104 22.4192L14.5394 22.4192L14.5394 21.0002L13.1104 21.0002L13.1104 22.4192Z" fill="white"/>
        <path d="M14.6113 20.4266L16.0403 20.4266L16.0403 19.0077L14.6113 19.0077L14.6113 20.4266Z" fill="white"/>
        <path d="M16.0148 18.2556L17.4438 18.2556L17.4438 16.8367L16.0148 16.8367L16.0148 18.2556Z" fill="white"/>
        <path d="M17.5158 12.1341L18.9448 12.1341L18.9448 10.7152L17.5158 10.7152L17.5158 12.1341Z" fill="white"/>
        <path d="M17.5158 14.8998L18.9448 14.8998L18.9448 13.4809L17.5158 13.4809L17.5158 14.8998Z" fill="white"/>
        <path d="M14.2639 7.43173L15.6929 7.43173L15.6929 6.01281L14.2639 6.01281L14.2639 7.43173Z" fill="white"/>
        <path d="M15.6953 8.85086L17.1243 8.85086L17.1243 7.43194L15.6953 7.43194L15.6953 8.85086Z" fill="white"/>
        <path d="M11.7688 12.1936L13.9071 12.1936L13.9071 10.1836L11.7688 10.1836L11.7688 12.1936Z" fill="white"/>
        <path d="M13.9095 13.6127L15.3385 13.6127L15.3385 12.1938L13.9095 12.1938L13.9095 13.6127Z" fill="white"/>
        <path fill-rule="evenodd" clip-rule="evenodd" d="M8.07656 20.7608C10.1767 23.5492 11.8204 26.4612 11.8827 26.5731L11.8851 26.5731L11.8851 24.1356C11.8779 24.1226 11.8707 24.1095 11.8635 24.0952L11.8635 6.67878C11.8707 6.67878 11.8779 6.67878 11.8851 6.67878L11.8851 5.26796L11.8743 5.26796C7.70517 5.27391 4.56157 8.49168 4.56157 12.7575C4.56156 15.7611 6.18488 18.2509 8.07656 20.762L8.07656 20.7608Z" fill="white"/>
    </symbol>   


    <!-- Wi-fi -->
    <symbol id="icon-wifi" viewBox="0 0 26 21">
        <path d="M24.1547 7.77707C23.761 7.77752 23.3877 7.60184 23.1373 7.29843C22.9808 7.10975 19.4382 2.96022 12.7484 2.96022C6.05861 2.96022 2.50464 7.12021 2.35722 7.29888C1.89595 7.85968 1.0665 7.94109 0.504507 7.48053C-0.0573393 7.02012 -0.138907 6.19222 0.322513 5.63127C0.500167 5.4151 4.75817 0.332947 12.7484 0.332947C20.7386 0.332947 24.9962 5.4151 25.1734 5.63142C25.6337 6.19281 25.551 7.02057 24.9884 7.48008C24.7531 7.6722 24.4586 7.77722 24.1547 7.77707Z" fill="#00FFFF"/>
        <path d="M21.0837 11.2802C20.6918 11.2809 20.32 11.1068 20.0699 10.8056C18.162 8.81725 15.5061 7.71866 12.7484 7.77722C9.9899 7.71821 7.33318 8.81725 5.42509 10.8065C4.94346 11.35 4.11177 11.4008 3.56728 10.9202C3.04884 10.4625 2.97416 9.68205 3.39651 9.1347C5.80689 6.54313 9.2061 5.09467 12.7484 5.14994C16.2907 5.09482 19.6899 6.54313 22.1003 9.1347C22.5607 9.6961 22.4779 10.5239 21.9153 10.9834C21.6806 11.175 21.387 11.2799 21.0837 11.2803V11.2802Z" fill="#00FFFF"/>
        <path d="M17.5741 14.7832C17.1664 14.7841 16.7816 14.5957 16.5326 14.2735C14.6469 12.1867 11.4236 12.0207 9.33287 13.9027C9.20281 14.0198 9.07873 14.1435 8.9614 14.2735C8.51195 14.8437 7.68445 14.9423 7.11332 14.4937C6.55117 14.0522 6.44521 13.2436 6.8746 12.6726C9.63699 9.43512 14.5058 9.04581 17.7492 11.8031C18.0623 12.0693 18.3537 12.3601 18.6204 12.6726C19.0613 13.2494 18.9504 14.0737 18.3725 14.5138C18.1431 14.6886 17.8626 14.7832 17.5741 14.7832Z" fill="#00FFFF"/>
        <path d="M12.7484 20.4757C14.2021 20.4757 15.3806 19.2995 15.3806 17.8485C15.3806 16.3975 14.2021 15.2212 12.7484 15.2212C11.2947 15.2212 10.1162 16.3975 10.1162 17.8485C10.1162 19.2995 11.2947 20.4757 12.7484 20.4757Z" fill="#00FFFF"/>
    </symbol>   

    <!-- Bell -->
    <symbol id="icon-bell" viewBox="0 0 33 41">
        <path d="M3.58032 1.38348L7.01082 5.67002" stroke="#8F8F8F" stroke-width="1.8" stroke-miterlimit="22.93" stroke-linecap="round"/>
        <path d="M1.67188 6.46896L4.84239 8.39664" stroke="#8F8F8F" stroke-width="1.8" stroke-miterlimit="22.93" stroke-linecap="round"/>
        <path d="M16.7888 35.2248H29.008C30.4157 35.2248 31.5634 34.0771 31.5634 32.6694C31.5634 31.8134 31.1386 31.0144 30.422 30.5388C28.989 29.5813 28.1329 27.9897 28.1329 26.265V18.7382C28.1329 12.4796 23.0411 7.38773 16.7825 7.38773H16.643C10.3844 7.38773 5.29256 12.4796 5.29256 18.7382V26.265C5.29256 27.9834 4.43652 29.5813 3.00345 30.5388C2.29325 31.0144 1.86206 31.807 1.86206 32.6694C1.86206 34.0771 3.00979 35.2248 4.41749 35.2248H16.7762H16.7888Z" stroke="#8F8F8F" stroke-width="1.8" stroke-miterlimit="22.93"/>
        <path d="M14.8641 7.25554V4.5289C14.8641 3.54604 15.6631 2.74707 16.646 2.74707C17.6288 2.74707 18.4278 3.54604 18.4278 4.5289V7.25554" stroke="#8F8F8F" stroke-width="1.8" stroke-miterlimit="22.93"/>
        <path d="M20.8055 35.2251C20.8055 37.5269 18.9412 39.3848 16.6458 39.3848C14.3503 39.3848 12.4861 37.5205 12.4861 35.2251" stroke="#8F8F8F" stroke-width="1.8" stroke-miterlimit="22.93"/>
        <path d="M16.6453 28.7837C16.1556 28.7837 15.7566 28.3876 15.7566 27.8887C15.7566 27.3927 16.1527 27 16.6453 27C17.1364 27 17.534 27.3976 17.534 27.8887C17.534 28.3828 17.1334 28.7837 16.6453 28.7837Z" fill="#8F8F8F" stroke="#8F8F8F"/>
        <path d="M16.6417 14.338V24.7056" stroke="#8F8F8F" stroke-width="1.8" stroke-miterlimit="22.93" stroke-linecap="round"/>
</symbol>  

    <!-- triangle -->
     <symbol id="icon-triangle" viewBox="0 0 22 20">
        <path d="M6.59175 10.5046L10.9219 3.00464L15.252 10.5046L19.5821 18.0046H10.9219H2.26162L6.59175 10.5046Z" stroke="#FF3873" stroke-width="2.5"/>
    </symbol> 
    <!-- diamond -->
     <symbol id="icon-diamond" viewBox="0 0 26 26">
        <path d="M23.2689 13.0046L17.8669 18.2991L17.8579 18.3079L17.8491 18.3169L12.5547 23.7188L7.26022 18.3169L7.25143 18.3079L7.24246 18.2991L1.84049 13.0046L7.24246 7.71018L7.25143 7.70138L7.26022 7.69241L12.5547 2.29044L17.8491 7.69241L17.8579 7.70138L17.8669 7.71018L23.2689 13.0046Z" stroke="#EE7F00" stroke-width="2.5"/>
    </symbol> 
    <!-- pentagon -->
     <symbol id="icon-pentagon" viewBox="0 0 25 24">
        <path d="M17.3152 5.91435L17.3305 5.92586L17.3462 5.93689L22.5895 9.62482L20.5153 15.6903L20.5091 15.7085L20.5035 15.7268L18.6163 21.8531L12.2067 21.7548L12.1875 21.7545L12.1683 21.7548L5.75871 21.8531L3.87154 15.7268L3.86589 15.7085L3.85969 15.6903L1.78549 9.62482L7.02878 5.93689L7.04447 5.92586L7.0598 5.91435L12.1875 2.06732L17.3152 5.91435Z" stroke="#FFE11D" stroke-width="2.5"/>
    </symbol> 
    <!-- hexagon -->
     <symbol id="icon-hexagon" viewBox="0 0 23 26">
        <path d="M16.4656 4.86507L16.4997 4.88621L16.535 4.90512L21.3636 7.49031L21.1881 12.9646L21.1869 13.0046L21.1881 13.0447L21.3636 18.519L16.535 21.1042L16.4997 21.1231L16.4656 21.1442L11.8125 24.0333L7.15936 21.1442L7.12532 21.1231L7.09 21.1042L2.2614 18.519L2.43686 13.0447L2.43814 13.0046L2.43686 12.9646L2.2614 7.49031L7.09 4.90512L7.12532 4.88621L7.15936 4.86507L11.8125 1.97598L16.4656 4.86507Z" stroke="#2B98CC" stroke-width="2.5"/>
    </symbol> 

    <!-- pump -->
    <symbol id="icon-pump" viewBox="0 0 33 49">
        <path d="M28.0309 37.3768C28.0309 37.3768 28.6252 21.9406 25.5109 15.3884L28.0309 37.3768Z" fill="#262626"/>
        <path d="M28.0309 37.3768C28.0309 37.3768 28.6252 21.9406 25.5109 15.3884" stroke="#8F8F8F" stroke-width="1.8"/>
        <path d="M10.966 37.3768C10.966 37.3768 10.3717 21.9406 13.486 15.3884L10.966 37.3768Z" fill="#262626"/>
        <path d="M10.966 37.3768C10.966 37.3768 10.3717 21.9406 13.486 15.3884" stroke="#8F8F8F" stroke-width="1.8"/>
        <path d="M3.78334 31.4853H2.15979C1.66164 31.4853 1.25781 31.6472 1.25781 31.847V45.9761C1.25781 46.1758 1.66164 46.3378 2.15979 46.3378H3.78334C4.28149 46.3378 4.68531 46.1758 4.68531 45.9761V31.847C4.68531 31.6472 4.28149 31.4853 3.78334 31.4853Z" fill="#262626" stroke="#8F8F8F" stroke-width="1.8"/>
        <path d="M4.68701 33.7703C4.68701 33.7703 4.75216 34.3014 4.91189 34.5942C5.17599 35.0783 5.55882 35.3088 6.01018 35.4818L9.31257 36.7381C10.6742 37.2572 12.126 37.5204 13.5854 37.5204H29.5933C30.9474 37.5204 32.0457 38.6187 32.0457 39.9728V42.2371C32.0457 43.5911 30.9474 44.6894 29.5933 44.6894H6.05531C5.56635 44.6894 5.09995 44.8474 4.70878 45.1333" stroke="#8F8F8F" stroke-width="1.8"/>
        <path d="M14.5456 44.6969H12.5747C12.367 44.6969 12.1986 44.8653 12.1986 45.0731V47.1041C12.1986 47.3119 12.367 47.4803 12.5747 47.4803H14.5456C14.7534 47.4803 14.9218 47.3119 14.9218 47.1041V45.0731C14.9218 44.8653 14.7534 44.6969 14.5456 44.6969Z" fill="#262626" stroke="#8F8F8F" stroke-width="1.8"/>
        <path d="M26.5941 44.6968H24.6232C24.4155 44.6968 24.2471 44.8652 24.2471 45.0729V47.104C24.2471 47.3118 24.4155 47.4801 24.6232 47.4801H26.5941C26.8018 47.4801 26.9702 47.3118 26.9702 47.104V45.0729C26.9702 44.8652 26.8018 44.6968 26.5941 44.6968Z" fill="#262626" stroke="#8F8F8F" stroke-width="1.8"/>
        <path d="M24.23 46.3522H14.9321" stroke="#8F8F8F" stroke-width="1.8"/>
        <path d="M25.3177 13.6217H13.8458" stroke="#8F8F8F" stroke-width="1.2" stroke-linecap="round"/>
        <path d="M26.5006 15.0697H13.0377C12.8024 15.0697 12.6176 14.9753 12.6176 14.8644V14.2527C12.6176 14.1377 12.8108 14.0474 13.0461 14.0474H26.5091C26.7444 14.0474 26.9292 14.1419 26.9292 14.2527V14.8644C26.9292 14.9794 26.736 15.0697 26.5006 15.0697Z" fill="#262626" stroke="#8F8F8F" stroke-width="1.8" stroke-linecap="round"/>
        <path d="M19.5399 13.2053V2.14343C19.5399 1.94006 19.6631 1.78027 19.8199 1.78027H20.4024C20.5592 1.78027 20.6824 1.94006 20.6824 2.14343V13.2053" fill="#262626"/>
        <path d="M19.5399 13.2053V2.14343C19.5399 1.94006 19.6631 1.78027 19.8199 1.78027H20.4024C20.5592 1.78027 20.6824 1.94006 20.6824 2.14343V13.2053" stroke="#8F8F8F" stroke-width="1.8" stroke-linecap="round"/>
        <path d="M20.6971 7.24887C21.2689 7.27144 21.5998 7.34666 21.5998 7.34666L24.323 9.77644L25.3235 13.6129" fill="#262626"/>
        <path d="M20.6971 7.24887C21.2689 7.27144 21.5998 7.34666 21.5998 7.34666L24.323 9.77644L25.3235 13.6129" stroke="#8F8F8F" stroke-width="1.8" stroke-linecap="round"/>
        <path d="M13.8743 13.6064C13.8743 13.6064 15.1606 9.33356 15.3261 8.94239C15.4916 8.55122 16.4771 7.80649 18.3727 7.43036C18.5533 7.39275 18.7263 7.36266 18.8918 7.34009" fill="#262626"/>
        <path d="M13.8743 13.6064C13.8743 13.6064 15.1606 9.33356 15.3261 8.94239C15.4916 8.55122 16.4771 7.80649 18.3727 7.43036C18.5533 7.39275 18.7263 7.36266 18.8918 7.34009" stroke="#8F8F8F" stroke-width="1.8" stroke-linecap="round"/>
        <path d="M23.7101 5.99728L25.4151 7.53252C25.5716 7.67346 25.5839 7.90719 25.443 8.06371L24.1544 9.49484L21.8903 7.45625L23.1789 6.02512C23.3198 5.86859 23.5535 5.85634 23.7101 5.99728Z" fill="#262626" stroke="#8F8F8F" stroke-width="1.8" stroke-linecap="round" stroke-linejoin="round"/>
        <path d="M11.0414 44.6969H28.1401V45.043C28.1401 45.2536 27.9746 45.4191 27.764 45.4191H11.4175C11.2069 45.4191 11.0414 45.2536 11.0414 45.043V44.6969Z" fill="#262626" stroke="#8F8F8F" stroke-width="1.8" stroke-linecap="round"/>
        <path d="M4.68701 40.6263H31.7027" stroke="#8F8F8F" stroke-width="1.8" stroke-linecap="round"/>
    </symbol> 
</svg>